<svg width="12" height="12" viewBox="0 0 12 12" fill="none" xmlns="http://www.w3.org/2000/svg">
<rect width="12" height="12" fill="#E5E5E5"/>
<g id="Frame 7" clip-path="url(#clip0_0_1)">
<rect width="1250" height="1560" transform="translate(-304 -880)" fill="#E7F6FF"/>
<g id="Rectangle 17" filter="url(#filter0_d_0_1)">
<rect x="-219" y="-795" width="1080" height="1526" rx="20" fill="white"/>
</g>
<g id="Group 110">
<g id="Group 107">
<g id="Group 93">
<rect id="Rectangle 19" x="-158.5" y="-203.5" width="209" height="259" rx="39.5" fill="white" stroke="#F3F3F3"/>
<g id="Group 95">
<g id="Group 91">
<rect id="Rectangle 22" x="-9.5" y="-9.5" width="31" height="31" rx="7.5" fill="white" stroke="#F2F2F2"/>
<path id="Vector" d="M10.6653 5.13122H7.20214V1.66821C7.20214 0.332846 5.13114 0.332846 5.13114 1.66821V5.13122H1.668C0.332935 5.13122 0.332935 7.20215 1.668 7.20215H5.13114V10.6652C5.13114 12.0005 7.20214 12.0005 7.20214 10.6652V7.20215H10.6653C12.0005 7.20215 12.0005 5.13122 10.6653 5.13122Z" fill="#D3D3D3"/>
</g>
</g>
</g>
</g>
</g>
</g>
<defs>
<filter id="filter0_d_0_1" x="-239" y="-805" width="1120" height="1566" filterUnits="userSpaceOnUse" color-interpolation-filters="sRGB">
<feFlood flood-opacity="0" result="BackgroundImageFix"/>
<feColorMatrix in="SourceAlpha" type="matrix" values="0 0 0 0 0 0 0 0 0 0 0 0 0 0 0 0 0 0 127 0" result="hardAlpha"/>
<feOffset dy="10"/>
<feGaussianBlur stdDeviation="10"/>
<feColorMatrix type="matrix" values="0 0 0 0 0 0 0 0 0 0 0 0 0 0 0 0 0 0 0.04 0"/>
<feBlend mode="normal" in2="BackgroundImageFix" result="effect1_dropShadow_0_1"/>
<feBlend mode="normal" in="SourceGraphic" in2="effect1_dropShadow_0_1" result="shape"/>
</filter>
<clipPath id="clip0_0_1">
<rect width="1250" height="1560" fill="white" transform="translate(-304 -880)"/>
</clipPath>
</defs>
</svg>
